<svg width="553" height="140" viewBox="0 0 553 140" fill="none" xmlns="http://www.w3.org/2000/svg">
<path fill-rule="evenodd" clip-rule="evenodd" d="M270.945 1.19669C270.945 1.77708 271.395 1.97553 271.944 1.63647C272.493 1.29741 272.942 0.822732 272.942 0.580405C272.942 0.338078 272.493 0.140625 271.944 0.140625C271.395 0.140625 270.945 0.616302 270.945 1.19669ZM256.239 5.81786C257.21 6.07115 258.558 6.0542 259.234 5.78096C259.91 5.50771 259.115 5.30129 257.468 5.32123C255.821 5.34118 255.267 5.56456 256.239 5.81786ZM191.578 7.12123C190.833 8.32489 194.764 8.32489 197.568 7.12123C199.177 6.43015 198.849 6.25065 195.879 6.19381C193.853 6.15592 191.917 6.57276 191.578 7.12123ZM222.029 7.25387C222.025 8.42462 225.693 8.85542 229.614 8.14439C233.108 7.51015 233.252 7.37553 231.012 6.82606C228.002 6.08811 222.032 6.37232 222.029 7.25387ZM178.599 8.11846C177.08 8.77065 177.676 8.98905 181.095 9.02993C183.566 9.06085 186.261 8.64999 187.085 8.11846C189.018 6.87093 181.505 6.87093 178.599 8.11846ZM167.618 9.17254C165.421 9.62627 161.517 10.0242 158.941 10.0551C156.365 10.087 153.941 10.6235 153.555 11.2478C153.059 12.0515 153.844 12.2101 156.241 11.7903C158.105 11.4642 162.887 10.8958 166.869 10.5268C170.85 10.1568 174.107 9.46473 174.107 8.98705C174.107 7.99481 173.192 8.02073 167.618 9.17254ZM261.711 8.77863C262.398 9.05586 263.521 9.05586 264.207 8.77863C264.893 8.5024 264.331 8.27602 262.959 8.27602C261.586 8.27602 261.025 8.5024 261.711 8.77863ZM235.504 10.1129C234.765 11.3086 237.71 11.3086 240.496 10.1129C242.179 9.39093 241.993 9.24533 239.307 9.1855C237.555 9.1476 235.844 9.56445 235.504 10.1129ZM291.91 10.2485C291.91 11.0643 288.629 11.2109 280.18 10.7711C272.88 10.3912 269.203 10.5018 270.446 11.0643C272.032 11.7813 271.57 11.9817 268.2 12.0376C265.867 12.0755 263.957 11.6586 263.957 11.1102C263.957 10.5617 263.011 10.1129 261.853 10.1129C260.394 10.1129 259.926 10.5707 260.325 11.6088C260.783 12.8025 259.987 13.1046 256.38 13.1046C253.62 13.1046 252.1 12.7157 252.476 12.1074C253.237 10.8778 253.023 10.8778 237.305 12.1233C220.938 13.4207 217.275 14.0141 219.011 15.0861C220.692 16.1242 210.998 17.4346 206.053 16.8372C203.111 16.4822 203.349 16.3795 207.551 16.1861C210.296 16.0594 213.441 15.5558 214.539 15.0652C215.793 14.5067 213.563 14.397 208.549 14.771C200.078 15.4042 198.879 15.7463 200.857 16.9669C201.536 17.3857 195.009 18.5286 186.352 19.5058C162.829 22.1615 161.679 22.2333 168.616 20.6227C171.91 19.8579 178.649 18.9195 183.591 18.5385C188.533 18.1566 193.25 17.4256 194.073 16.912C195.043 16.3087 193.281 16.188 189.082 16.569C177.533 17.6171 158.515 20.153 155.54 21.0426C152.821 21.8553 152.92 21.9211 157.135 22.1176C159.976 22.2502 156.492 22.9772 147.651 24.0971C139.964 25.0704 133.516 25.7176 133.323 25.5341C133.129 25.3506 134.477 24.9467 136.318 24.6376C138.159 24.3284 141.91 23.6762 144.656 23.1886L149.647 22.3031L144.905 22.1914C142.154 22.1266 140.163 21.614 140.163 20.9688C140.163 20.2348 138.726 20.0583 135.92 20.4482C127.216 21.6588 120.537 22.0488 123.691 21.1622C125.338 20.6995 128.461 20.2677 130.629 20.2029C132.971 20.1331 134.187 19.7262 133.624 19.2017C133.103 18.716 130.205 18.6612 127.185 19.079C123.945 19.5268 121.202 19.446 120.494 18.8826C119.726 18.2703 117.39 18.2992 114.005 18.9633C106.087 20.516 92.365 22.8924 87.0119 23.6384C84.4092 24.0013 82.5264 24.6964 82.8278 25.1831C83.1293 25.6697 82.713 26.0686 81.9024 26.0686C81.0927 26.0686 80.2791 26.5184 80.0964 27.0678C79.8788 27.719 78.6269 27.741 76.4994 27.1316C74.4758 26.5523 73.4555 26.5513 73.8139 27.1296C74.1313 27.6432 73.8937 28.0631 73.2858 28.0631C72.6788 28.0631 71.1743 29.148 69.9443 30.4744C66.6678 34.0056 57.4312 36.0688 45.6768 35.8963L35.8372 35.7517L41.5776 34.7375C44.7343 34.1801 47.318 33.3474 47.318 32.8877C47.318 31.7209 45.6568 31.8535 39.3783 33.5229C34.6132 34.7894 32.1144 34.8522 33.4242 33.6715C34.1819 32.9884 67.5932 25.218 78.7656 23.1268C90.55 20.9199 122.237 16.0963 124.945 16.0963C125.958 16.0963 126.224 15.7503 125.637 15.1918C124.562 14.1667 90.4771 18.7998 74.7723 22.1056C65.936 23.9654 38.1823 30.963 26.6465 34.2399C23.6645 35.0866 22.3626 36.0259 22.154 37.4819C21.9393 38.9827 20.926 39.6648 18.3663 40.0298C15.2315 40.4776 14.8382 40.8805 14.5457 43.9579L14.2182 47.3864L17.1922 44.2072C20.6375 40.5234 21.4442 40.3579 23.7224 42.8729C25.3127 44.629 25.1719 44.8335 20.7942 47.1111C17.7683 48.6848 15.6278 50.6852 14.5357 52.9599C13.6222 54.8616 10.9656 57.6957 8.63251 59.2584C4.84182 61.7974 4.38958 62.5193 4.38958 66.0236C4.38958 68.6174 5.06645 70.6228 6.38625 71.9412C9.08974 74.6417 9.78159 74.4731 11.4478 70.7076C12.6428 68.0041 13.5882 67.3599 17.2591 66.7466C23.5666 65.6925 24.0798 66.7037 18.9553 70.0943C13.8049 73.5018 13.6032 73.9516 12.9214 83.5419C12.0538 95.745 8.86812 99.6662 5.79424 92.3156C3.61188 87.0981 1.99357 88.556 1.20089 96.4541C0.544986 102.99 0.646818 103.498 3.1187 106.079C5.66246 108.735 5.68242 108.856 3.90039 110.822C2.89507 111.932 2.25713 113.001 2.48176 113.198C2.70738 113.395 5.28309 114.336 8.20422 115.29C14.0684 117.204 15.4272 118.986 13.0342 121.627C11.4718 123.352 11.7513 127.786 13.4235 127.786C13.8718 127.786 14.5447 128.749 14.919 129.927C15.8075 132.723 20.6215 139.666 21.7067 139.715C22.1709 139.736 23.8152 138.853 25.3596 137.754C29.1074 135.089 48.6408 130.567 62.2931 129.206C65.8621 128.85 71.927 127.922 75.7706 127.143C106.299 120.96 118.251 119.143 147.513 116.237C161.767 114.822 164.48 114.776 165.218 115.94C165.924 117.055 166.092 117.011 166.105 115.711C166.116 114.487 167.952 113.807 173.857 112.842C178.112 112.146 184.196 110.996 187.376 110.286C192.563 109.129 193.264 109.168 194.199 110.664C194.974 111.902 196.435 112.266 199.899 112.08C207.497 111.672 201.517 113.579 192.929 114.303C175.754 115.748 145.768 120.177 141.964 121.829C139.013 123.109 145.542 122.494 169.614 119.221C195.499 115.702 200.063 115.32 200.063 116.672C200.063 118.401 206.531 118.087 229.097 115.261C240.308 113.858 254.252 112.531 260.083 112.315C265.915 112.099 279.168 111.004 289.534 109.882C325.999 105.938 382.158 102.271 420.934 101.303C436.023 100.926 447.391 100.251 447.082 99.7509C446.781 99.2643 442.668 98.8664 437.941 98.8664C433.215 98.8664 429.686 98.5293 430.098 98.1185C430.51 97.7076 439.008 97.4413 448.983 97.5291C458.957 97.6159 465.882 97.4732 464.373 97.213C462.863 96.9527 461.628 96.3205 461.628 95.8089C461.628 94.5913 462.118 94.6311 468.616 96.3733C474.734 98.0138 478.404 98.2631 474.711 96.7872C473.395 96.2616 472.589 95.5626 472.919 95.2335C473.248 94.9044 485.331 94.6441 499.769 94.6561C514.217 94.668 524.673 94.327 523.025 93.8982C521.378 93.4694 514.329 93.0655 507.36 93.0007C491.755 92.8561 488.69 90.9504 503.748 90.7549C512.604 90.6402 513.343 90.5126 509.048 89.8375C506.303 89.4057 500.014 89.2102 495.072 89.4027L486.087 89.7537L495.821 88.7036C503.158 87.9118 505.554 87.2985 505.554 86.2125C505.554 85.2273 504.925 84.97 503.568 85.4008C502.43 85.7618 500.631 85.3649 499.353 84.4704C497.296 83.0314 498.67 82.8997 517.062 82.7751C528.029 82.7003 536.103 82.5068 535.005 82.3453C533.907 82.1837 528.18 81.4867 522.276 80.7956C515.403 79.9908 511.544 79.1162 511.544 78.3613C511.544 77.2026 504.483 75.7486 497.568 75.4843C486.89 75.0745 486.789 75.0446 485.238 71.9412C483.667 68.7949 484.472 67.9014 486.586 70.4453C487.399 71.4236 489.427 71.8953 492.448 71.8095C496.878 71.6839 496.924 71.653 493.574 71.0556C488.34 70.1222 491.366 69.0143 498.991 69.0721C506.734 69.132 508.204 68.4778 503.418 67.1016C500.544 66.2759 501.278 66.1144 508.549 65.9718C516.705 65.8122 516.899 65.7564 513.541 64.5178C511.619 63.8088 509.69 63.4328 509.254 63.6821C508.819 63.9314 507.92 63.6871 507.257 63.1386C506.051 62.1414 493.204 60.5438 488.663 60.827C487.335 60.9098 486.527 60.6984 486.868 60.3564C487.211 60.0153 491.217 59.3342 495.774 58.8436C500.329 58.3529 504.955 57.8453 506.053 57.7157C507.152 57.587 508.369 57.0366 508.757 56.4921C509.209 55.8608 509.913 55.9516 510.704 56.7414C511.386 57.4225 512.864 57.948 513.99 57.9101C516.017 57.8403 516.017 57.8314 514.04 56.9827C512.626 56.3754 513.846 56.1052 518.224 56.0553C524.238 55.9875 528.501 54.0369 522.834 53.9462C521.292 53.9212 518.682 53.285 517.035 52.5311C514.368 51.3115 516.16 51.1529 533.425 51.0801C544.086 51.0362 552.489 50.6802 552.099 50.2903C551.708 49.9004 546.805 49.2422 541.201 48.8274C531.731 48.1273 520.033 46.1927 516.536 44.7487C515.712 44.4087 512.568 43.6747 509.548 43.1172C504.561 42.1958 504.881 42.1509 513.042 42.6266C519.021 42.9756 521.692 42.8181 521.028 42.1559C520.479 41.6084 518.233 40.9812 516.037 40.7628C513.564 40.5165 514.8 40.3011 519.281 40.1974C526.807 40.0228 529.692 38.0354 522.419 38.0354C519.124 38.0354 518.436 37.7312 518.914 36.4877C519.24 35.636 519.106 35.1883 518.613 35.4924C518.121 35.7966 516.667 35.6241 515.38 35.1085C513.535 34.3705 514.358 34.1591 519.281 34.1093C528.084 34.0205 527.167 32.0679 518.283 31.9822C514.303 31.9433 510.147 31.4865 509.048 30.968C507.739 30.3487 512.888 30.1572 524.023 30.4115C533.358 30.6259 542.118 30.4534 543.491 30.0296C545.276 29.4791 543.995 29.2039 538.999 29.0653C526.048 28.7063 508.075 27.2922 504.556 26.3568C502.19 25.7276 507.667 25.5411 521.528 25.7794C541.529 26.1235 541.903 26.0935 538 24.4371C535.659 23.4439 530.392 22.5763 525.271 22.3409C515.593 21.8942 513.217 20.0942 522.276 20.0703C529.758 20.0503 527.329 18.1875 519.531 17.9641C514.198 17.8125 514.155 17.7886 518.033 17.1474C521.884 16.5112 521.781 16.4573 515.188 15.6665C510.34 15.0841 507.226 15.2158 504.489 16.1182C501.854 16.9868 500.22 17.0716 499.347 16.3835C497.429 14.8737 490.959 14.1218 489.805 15.2746C489.181 15.8978 486.363 16.0155 482.449 15.5837C478.959 15.1978 439.489 14.7281 394.739 14.5396C323.348 14.2385 309.092 14.4379 278.433 16.1631C228.728 18.9594 206.125 20.7334 177.191 24.108C150.824 27.1825 147.42 27.4617 148.409 26.4745C149.298 25.5859 182.225 21.4056 202.06 19.6634C211.669 18.8187 223.799 17.6759 229.015 17.1234C243.162 15.6246 278.254 13.2971 305.887 12.0256C319.34 11.4063 331.02 10.4639 331.844 9.93243C333.102 9.11968 333.073 9.04788 331.666 9.47968C329.203 10.2376 294.937 10.4769 294.202 9.74195C293.194 8.73575 291.91 9.01896 291.91 10.2485ZM188.583 11.1102C188.922 11.6586 189.397 12.1074 189.64 12.1074C189.882 12.1074 190.08 11.6586 190.08 11.1102C190.08 10.5617 189.604 10.1129 189.023 10.1129C188.442 10.1129 188.243 10.5617 188.583 11.1102ZM203.558 13.1046C203.218 13.6531 203.417 14.1018 203.998 14.1018C204.579 14.1018 205.055 13.6531 205.055 13.1046C205.055 12.5561 204.857 12.1074 204.615 12.1074C204.372 12.1074 203.897 12.5561 203.558 13.1046ZM209.86 12.7885C210.58 13.0767 211.441 13.0408 211.773 12.7097C212.104 12.3786 211.515 12.1433 210.463 12.1862C209.3 12.234 209.063 12.4704 209.86 12.7885ZM130.18 14.1018C128.353 15.2806 134.027 15.2806 138.666 14.1018C141.272 13.4397 141.013 13.327 136.669 13.2382C133.924 13.1814 131.004 13.5703 130.18 14.1018ZM159.132 14.1018C159.132 14.6503 160.255 15.0991 161.628 15.0991C163 15.0991 164.123 14.6503 164.123 14.1018C164.123 13.5534 163 13.1046 161.628 13.1046C160.255 13.1046 159.132 13.5534 159.132 14.1018ZM196.819 13.7648C197.506 14.042 198.629 14.042 199.315 13.7648C200.002 13.4885 199.439 13.2622 198.067 13.2622C196.694 13.2622 196.133 13.4885 196.819 13.7648ZM247.734 13.8186C246.225 14.047 243.753 14.047 242.243 13.8186C240.734 13.5903 241.969 13.4038 244.989 13.4038C248.009 13.4038 249.243 13.5903 247.734 13.8186ZM165.662 15.0333C165.345 15.5448 166.218 15.844 167.602 15.6964C171.078 15.3264 172.029 14.1018 168.841 14.1018C167.409 14.1018 165.978 14.5207 165.662 15.0333ZM181.594 15.0991C180.891 16.2349 184.115 16.2349 188.583 15.0991C191.271 14.416 191.098 14.3262 186.894 14.2195C184.319 14.1547 181.934 14.5506 181.594 15.0991ZM226.02 15.0991C226.02 15.6475 225.319 16.0963 224.464 16.0963C223.608 16.0963 223.185 15.6475 223.524 15.0991C223.864 14.5506 224.564 14.1018 225.081 14.1018C225.598 14.1018 226.02 14.5506 226.02 15.0991ZM236.253 14.8228C234.468 15.0442 231.549 15.0442 229.764 14.8228C227.979 14.6025 229.439 14.421 233.009 14.421C236.578 14.421 238.038 14.6025 236.253 14.8228ZM176.852 15.7592C177.539 16.0365 178.662 16.0365 179.348 15.7592C180.035 15.483 179.473 15.2566 178.1 15.2566C176.727 15.2566 176.166 15.483 176.852 15.7592ZM134.173 17.0935C134.173 17.642 134.596 18.0908 135.113 18.0908C135.63 18.0908 136.33 17.642 136.669 17.0935C137.009 16.5451 136.585 16.0963 135.73 16.0963C134.874 16.0963 134.173 16.5451 134.173 17.0935ZM139.165 18.0908C139.165 18.6392 139.839 19.088 140.662 19.088C141.486 19.088 142.16 18.6392 142.16 18.0908C142.16 17.5423 141.486 17.0935 140.662 17.0935C139.839 17.0935 139.165 17.5423 139.165 18.0908ZM510.296 18.7778C509.336 19.0292 507.763 19.0292 506.802 18.7778C505.842 18.5275 506.628 18.3221 508.549 18.3221C510.471 18.3221 511.257 18.5275 510.296 18.7778ZM138.666 22.6182C136.262 23.5346 124.19 24.6575 124.19 23.9635C124.19 23.5426 125.875 23.0211 127.934 22.8057C133.051 22.2711 139.889 22.1515 138.666 22.6182ZM508.799 22.8007C507.014 23.0221 504.095 23.0221 502.31 22.8007C500.525 22.5803 501.985 22.3988 505.554 22.3988C509.123 22.3988 510.584 22.5803 508.799 22.8007ZM519.781 23.781C518.546 24.0183 516.523 24.0183 515.288 23.781C514.053 23.5426 515.063 23.3482 517.534 23.3482C520.005 23.3482 521.016 23.5426 519.781 23.781ZM87.7506 27.0658C87.4112 27.6143 86.1493 28.0561 84.9463 28.0481C83.1683 28.0351 83.0395 27.8516 84.2565 27.0658C86.2232 25.7964 88.5363 25.7964 87.7506 27.0658ZM124.918 26.6709C124.586 27.002 123.725 27.0379 123.005 26.7497C122.208 26.4316 122.445 26.1952 123.608 26.1474C124.66 26.1045 125.249 26.3399 124.918 26.6709ZM59.2981 29.0603C59.2981 29.6088 60.1696 30.0575 61.2358 30.0575C62.3021 30.0575 63.4511 29.6088 63.7906 29.0603C64.141 28.4949 63.3014 28.0631 61.8528 28.0631C60.4481 28.0631 59.2981 28.5118 59.2981 29.0603ZM77.0185 30.6389C76.0671 31.5893 74.1593 30.0505 74.8691 28.9047C75.2904 28.2236 75.8485 28.2406 76.5653 28.9566C77.1533 29.5439 77.357 30.3008 77.0185 30.6389ZM201.79 28.6654C201.458 28.9965 200.597 29.0324 199.877 28.7442C199.08 28.4261 199.317 28.1897 200.48 28.1418C201.532 28.099 202.121 28.3343 201.79 28.6654ZM192.077 30.0575C191.253 30.589 189.681 31.0238 188.583 31.0238C186.929 31.0238 186.843 30.8583 188.083 30.0575C188.907 29.526 190.479 29.0912 191.578 29.0912C193.231 29.0912 193.317 29.2567 192.077 30.0575ZM50.313 31.0548C50.313 31.6032 50.7623 32.052 51.3114 32.052C51.8605 32.052 52.3097 31.6032 52.3097 31.0548C52.3097 30.5063 51.8605 30.0575 51.3114 30.0575C50.7623 30.0575 50.313 30.5063 50.313 31.0548ZM505.804 30.7177C505.118 30.9949 503.995 30.9949 503.308 30.7177C502.622 30.4415 503.183 30.2151 504.556 30.2151C505.929 30.2151 506.491 30.4415 505.804 30.7177ZM108.778 32.8208C108.065 33.5329 91.8947 35.9472 91.3277 35.4256C90.4452 34.6149 92.0824 34.0983 99.7646 32.767C107.221 31.4746 110.108 31.4915 108.778 32.8208ZM62.7982 38.1481C56.2122 39.7606 50.1473 40.9263 49.3207 40.7388C47.339 40.2891 67.9107 35.2401 71.7773 35.2272C73.4245 35.2212 69.3842 36.5355 62.7982 38.1481ZM42.8255 39.0326C41.7273 39.5043 39.8694 39.9211 38.6964 39.96C37.5244 39.9979 35.2781 40.7 33.7047 41.5197C29.9021 43.5002 28.0092 43.4054 25.9476 41.1308C23.6165 38.5579 24.8365 38.1949 35.8372 38.1839C41.7234 38.179 44.1333 38.4711 42.8255 39.0326ZM514.789 38.6955C514.103 38.9728 512.98 38.9728 512.293 38.6955C511.607 38.4193 512.168 38.1929 513.541 38.1929C514.914 38.1929 515.476 38.4193 514.789 38.6955ZM28.163 40.7109C28.8828 40.9991 29.7443 40.9632 30.0758 40.6322C30.4072 40.3011 29.8182 40.0657 28.7659 40.1086C27.6029 40.1565 27.3663 40.3928 28.163 40.7109ZM480.325 61.574C479.994 61.9051 479.132 61.941 478.413 61.6528C477.616 61.3346 477.852 61.0983 479.016 61.0504C480.068 61.0075 480.657 61.2429 480.325 61.574ZM475.367 69.6346C474.412 69.8839 472.615 69.8929 471.373 69.6545C470.131 69.4162 470.912 69.2118 473.108 69.2008C475.305 69.1898 476.321 69.3853 475.367 69.6346ZM464.872 71.6041C464.186 71.8813 463.063 71.8813 462.376 71.6041C461.69 71.3279 462.251 71.1015 463.624 71.1015C464.997 71.1015 465.559 71.3279 464.872 71.6041ZM491.307 85.5075C490.976 85.8386 490.114 85.8745 489.394 85.5863C488.598 85.2682 488.834 85.0318 489.997 84.9839C491.049 84.9411 491.638 85.1764 491.307 85.5075ZM479.149 99.9454C479.461 100.449 482.186 100.861 485.206 100.861C488.226 100.861 490.456 100.471 490.161 99.9953C489.866 99.5186 487.141 99.1067 484.104 99.0798C480.994 99.0519 478.83 99.4298 479.149 99.9454ZM305.887 102.855C305.887 103.404 304.651 103.821 303.142 103.783C300.709 103.72 300.624 103.615 302.393 102.855C305.119 101.685 305.887 101.685 305.887 102.855ZM296.902 103.853C296.902 104.401 295.892 104.818 294.656 104.78C292.512 104.713 292.501 104.67 294.406 103.853C295.504 103.381 296.516 102.964 296.652 102.925C296.789 102.887 296.902 103.304 296.902 103.853ZM258.236 104.507C257.56 104.78 256.212 104.797 255.24 104.544C254.269 104.29 254.822 104.067 256.469 104.047C258.117 104.027 258.911 104.233 258.236 104.507ZM242.992 105.684C242.992 106.613 217.269 109.404 216.431 108.567C215.776 107.914 222.136 106.805 232.01 105.852C243.093 104.782 242.992 104.783 242.992 105.684ZM250.741 105.535C249.787 105.784 247.99 105.793 246.748 105.555C245.506 105.316 246.286 105.112 248.483 105.101C250.679 105.09 251.695 105.286 250.741 105.535ZM340.282 107.918C339.821 108.665 341.098 108.778 344.466 108.289C350.837 107.365 351.227 106.844 345.547 106.844C343.016 106.844 340.647 107.328 340.282 107.918ZM321.361 108.839C320.995 109.431 322.085 109.807 324.048 109.766C326.8 109.707 327.018 109.553 325.355 108.839C322.646 107.676 322.08 107.676 321.361 108.839ZM335.65 108.523C336.37 108.811 337.232 108.775 337.563 108.444C337.895 108.113 337.306 107.877 336.253 107.92C335.09 107.968 334.854 108.204 335.65 108.523ZM18.3663 109.594C18.3663 110.418 11.1803 112.876 9.14765 112.747C7.63217 112.65 15.3273 108.903 17.1184 108.865C17.8052 108.851 18.3663 109.178 18.3663 109.594ZM198.067 109.836C198.067 110.384 197.366 110.833 196.51 110.833C195.655 110.833 195.231 110.384 195.571 109.836C195.91 109.287 196.61 108.839 197.127 108.839C197.644 108.839 198.067 109.287 198.067 109.836ZM311.128 110.523C312.089 110.774 313.662 110.774 314.623 110.523C315.583 110.273 314.797 110.067 312.875 110.067C310.954 110.067 310.168 110.273 311.128 110.523ZM164.573 111.728C163.095 113.121 155.138 114.174 155.138 112.975C155.138 112.412 156.824 111.775 158.882 111.559C160.942 111.345 163.278 111.093 164.073 111.001C164.964 110.898 165.157 111.177 164.573 111.728ZM211.544 111.83C208.771 113.021 206.814 113.021 207.551 111.83C207.89 111.282 209.377 110.865 210.854 110.903C213.253 110.966 213.327 111.065 211.544 111.83ZM21.3613 113.825C21.3613 114.373 20.912 114.822 20.363 114.822C19.8139 114.822 19.3646 114.373 19.3646 113.825C19.3646 113.276 19.8139 112.828 20.363 112.828C20.912 112.828 21.3613 113.276 21.3613 113.825ZM179.098 113.825C179.098 114.373 179.575 114.822 180.156 114.822C180.737 114.822 180.935 114.373 180.596 113.825C180.256 113.276 179.781 112.828 179.539 112.828C179.296 112.828 179.098 113.276 179.098 113.825ZM269.76 115.503C270.48 115.791 271.342 115.755 271.673 115.424C272.005 115.093 271.416 114.858 270.363 114.901C269.2 114.949 268.964 115.185 269.76 115.503Z" fill="#FFCF40"/>
</svg>
